<?xml version="1.0" encoding="UTF-8"?> <svg xmlns="http://www.w3.org/2000/svg" width="74" height="40" viewBox="0 0 74 40" fill="none"><path fill-rule="evenodd" clip-rule="evenodd" d="M10.1976 22.0618C10.1976 22.0618 10.1976 24.5767 11.9707 26.358C12.8168 27.2085 13.895 27.7879 15.0689 28.0228C16.2428 28.2578 17.4596 28.1377 18.5656 27.6779C19.6716 27.218 20.617 26.439 21.2823 25.4394C21.9476 24.4397 22.3029 23.2644 22.3033 22.0618C22.3056 23.8994 22.1571 25.734 21.8593 27.547C21.3753 30.0502 19.6261 34.2177 16.2529 34.2177C12.8798 34.2177 11.5323 29.9361 10.7928 27.6949C10.0533 25.4536 10.1976 22.0618 10.1976 22.0618Z" fill="url(#paint0_linear_9114_13140)"></path><path fill-rule="evenodd" clip-rule="evenodd" d="M16.2473 9.85123C16.2473 9.85123 22.2967 10.545 22.2967 22.0618C22.2967 33.5786 16.2473 34.217 16.2473 34.217C17.8604 34.2729 19.4686 34.0087 20.98 33.4397C22.4914 32.8706 23.8763 32.0078 25.0555 30.9006C26.9985 29.1004 28.4923 26.3238 28.4976 22.0376C28.5029 17.7514 27.0371 14.9135 25.0462 13.1584C20.5996 9.25825 16.2473 9.85123 16.2473 9.85123Z" fill="url(#paint1_linear_9114_13140)"></path><path fill-rule="evenodd" clip-rule="evenodd" d="M15.0675 6.54108C16.9709 6.48437 20.5956 6.44159 22.1445 6.44159C23.6934 6.44159 28.4922 6.6031 28.4922 11.3559V21.7644C28.4922 21.7644 28.346 12.9545 20.7395 12.9545C13.133 12.9545 12.9132 6.60409 15.0675 6.54108Z" fill="#00224B"></path><path fill-rule="evenodd" clip-rule="evenodd" d="M7.6151 30.6774C4 26.8233 4.1469 23.7111 4 22.0628C4 18.8008 11.5557 20.927 11.2295 22.0628C9.31157 28.7326 13.4413 34.2181 16.2473 34.2181C16.3378 34.2622 11.2295 34.5325 7.6151 30.6774Z" fill="#00224B"></path><path d="M9.81469 18.3388C11.4442 18.3388 12.7653 17.0116 12.7653 15.3745C12.7653 13.7374 11.4442 12.4103 9.81469 12.4103C8.18515 12.4103 6.86414 13.7374 6.86414 15.3745C6.86414 17.0116 8.18515 18.3388 9.81469 18.3388Z" fill="#00224B"></path><path fill-rule="evenodd" clip-rule="evenodd" d="M70 15.9645C70 14.5424 69.5088 13.5889 68.5399 12.9667C67.8183 12.5058 64.5766 12.4 64.5766 12.4C64.5174 12.398 64.4585 12.408 64.4033 12.4294C64.3481 12.4508 64.2977 12.4831 64.2552 12.5244C64.2126 12.5658 64.1788 12.6153 64.1557 12.67C64.1326 12.7248 64.1207 12.7836 64.1207 12.843V29.2556C64.1207 30.6777 64.6119 31.6312 65.5808 32.2534C66.3024 32.7144 69.5441 32.8202 69.5441 32.8202C69.6033 32.8221 69.6622 32.8121 69.7174 32.7907C69.7726 32.7693 69.823 32.737 69.8655 32.6957C69.9081 32.6544 69.9419 32.6048 69.965 32.5501C69.9881 32.4954 70 32.4365 70 32.3771V15.9645Z" fill="#00224B"></path><path fill-rule="evenodd" clip-rule="evenodd" d="M54.6909 13.0798C53.6959 13.698 53.2308 14.6432 53.2308 16.0577V18.165C53.2361 19.7317 53.2424 21.3524 53.1955 22.9516C53.1486 24.5508 53.0661 27.8534 52.7865 29.5133C52.46 31.4445 50.5668 35.334 49.6659 36.3243C49.6659 36.9949 53.4404 36.5183 55.2983 35.2962C56.9443 34.2107 58.0228 32.5455 58.6922 30.0562C59.0052 28.8805 59.2564 25.9842 59.2597 24.2524C59.267 20.7525 59.2597 12.8308 59.2597 12.8308C59.2597 12.77 59.2472 12.7099 59.2231 12.6542C59.199 12.5985 59.1637 12.5484 59.1195 12.5069C59.0753 12.4655 59.0231 12.4336 58.9661 12.4132C58.9091 12.3929 58.8486 12.3845 58.7883 12.3887C58.7883 12.3887 55.4297 12.6172 54.6949 13.0752L54.6909 13.0798Z" fill="#00224B"></path><path fill-rule="evenodd" clip-rule="evenodd" d="M46.5991 14.3968C47.3443 15.1242 47.9054 16.0203 48.2355 17.0102C48.6202 18.2068 48.777 19.4656 48.6976 20.7206L48.2919 31.1394C48.284 31.3613 48.203 31.5743 48.0616 31.745C47.9202 31.9157 47.7264 32.0344 47.5105 32.0826C46.6981 32.264 45.7563 32.4431 44.7141 32.6132C43.5844 32.7932 42.442 32.882 41.2981 32.8785C40.9852 32.8785 40.6795 32.8732 40.3678 32.8616C39.1477 32.8222 37.9352 32.6527 36.7508 32.3558C35.7479 32.1118 34.8006 31.6779 33.9596 31.0773C33.1921 30.509 32.5833 29.7516 32.1919 28.8782C31.7602 27.8498 31.5751 26.7339 31.6515 25.6204C31.6533 24.5277 31.9738 23.4596 32.5735 22.548C33.1283 21.7634 33.8599 21.1218 34.7087 20.6755C35.59 20.2169 36.5422 19.9112 37.5249 19.7711C38.3173 19.6522 39.1173 19.5915 39.9185 19.5897C40.1166 19.5897 40.3117 19.5897 40.5015 19.6013L42.7816 19.6915C42.7812 19.2983 42.6665 18.9138 42.4515 18.5852C42.2385 18.2746 41.9516 18.0225 41.617 17.8516C41.2533 17.667 40.8647 17.5368 40.4636 17.4649C40.0291 17.3866 39.5896 17.3397 39.1484 17.3246C38.4373 17.3062 37.7259 17.3479 37.0218 17.4493C36.4288 17.5297 35.8412 17.6462 35.2623 17.7982C35.0344 17.8575 34.793 17.8333 34.5813 17.73C34.3695 17.6267 34.2013 17.451 34.1069 17.2344C34.0392 17.0815 33.9748 16.9336 33.9171 16.7933C33.6869 16.0565 33.5253 15.2999 33.4341 14.5331C33.4235 14.3424 33.4173 14.1391 33.4163 13.9232C33.415 13.701 33.4876 13.4847 33.6225 13.3085C33.7574 13.1324 33.9469 13.0065 34.161 12.9508C35.1332 12.6975 36.12 12.505 37.1159 12.3744C38.1961 12.2262 39.2866 12.167 40.3764 12.1973C41.585 12.2308 42.7826 12.439 43.9321 12.8155C44.9253 13.1408 45.8356 13.6806 46.5991 14.3968ZM42.7107 28.1353L42.8879 23.5539L40.5058 23.4627C40.4256 23.4627 40.3441 23.4574 40.2648 23.4574C39.52 23.4383 38.7832 23.6165 38.1287 23.9741C37.808 24.1397 37.5381 24.3895 37.3474 24.6969C37.1568 25.0042 37.0526 25.3578 37.0459 25.7199C37.0028 26.1952 37.1208 26.6712 37.3806 27.0707C37.6155 27.3984 37.9276 27.6623 38.2891 27.8388C38.6519 28.0165 39.0384 28.1404 39.4366 28.2066C39.8024 28.2714 40.172 28.3124 40.5431 28.3293C40.8815 28.334 41.2199 28.321 41.5569 28.2905C41.8865 28.2704 42.2145 28.2306 42.5393 28.1711L42.7107 28.1353Z" fill="#00224B"></path><path d="M56.2824 9.91195C57.9074 9.91195 59.2247 8.58851 59.2247 6.95597C59.2247 5.32343 57.9074 4 56.2824 4C54.6574 4 53.34 5.32343 53.34 6.95597C53.34 8.58851 54.6574 9.91195 56.2824 9.91195Z" fill="#00224B"></path><path d="M67.0214 9.91195C68.6464 9.91195 69.9637 8.58851 69.9637 6.95597C69.9637 5.32343 68.6464 4 67.0214 4C65.3964 4 64.0791 5.32343 64.0791 6.95597C64.0791 8.58851 65.3964 9.91195 67.0214 9.91195Z" fill="#00224B"></path><defs><linearGradient id="paint0_linear_9114_13140" x1="5.518" y1="15.5834" x2="37.4023" y2="28.7671" gradientUnits="userSpaceOnUse"><stop stop-color="#942900"></stop><stop offset="0.16" stop-color="#AE3514"></stop><stop offset="0.36" stop-color="#C94129"></stop><stop offset="0.57" stop-color="#DD4A39"></stop><stop offset="0.79" stop-color="#E94F42"></stop><stop offset="1" stop-color="#ED5145"></stop></linearGradient><linearGradient id="paint1_linear_9114_13140" x1="37" y1="13.4298" x2="37" y2="8.43757" gradientUnits="userSpaceOnUse"><stop stop-color="#FF7A6B"></stop><stop offset="0.2" stop-color="#FD7667"></stop><stop offset="0.39" stop-color="#F96B5B"></stop><stop offset="0.58" stop-color="#F15947"></stop><stop offset="0.77" stop-color="#E63F2C"></stop><stop offset="0.96" stop-color="#D71F08"></stop><stop offset="1" stop-color="#D41700"></stop></linearGradient></defs></svg> 